<svg width="70" height="70" viewBox="0 0 70 70" fill="none" xmlns="http://www.w3.org/2000/svg">
<circle cx="35" cy="35" r="35" fill="#029D66"/>
<path d="M26.08 45.48C25.6533 45.48 25.32 45.44 25.08 45.36C24.3333 45.1733 23.8133 44.76 23.52 44.12C23.2533 43.4533 23.12 42.72 23.12 41.92C23.12 41.1733 23.1867 40.44 23.32 39.72C23.48 39 23.6133 38.44 23.72 38.04C22.7067 40.3067 21.4533 42.0667 19.96 43.32C18.4933 44.5733 16.9333 45.2 15.28 45.2C13.7333 45.2 12.6 44.8 11.88 44C11.16 43.1733 10.8 42.08 10.8 40.72C10.8 39.6533 10.9733 38.5467 11.32 37.4C11.72 35.96 12.2667 34.4667 12.96 32.92C13.6533 31.3733 14.4933 29.88 15.48 28.44C16.4667 27 17.6 25.6933 18.88 24.52C20.1867 23.3467 21.64 22.4267 23.24 21.76C24.84 21.0667 26.6133 20.72 28.56 20.72C29.7333 20.72 30.6533 20.9067 31.32 21.28C32.0133 21.6533 32.4933 22.1867 32.76 22.88C32.8667 23.12 32.92 23.3867 32.92 23.68C32.92 24.08 32.8133 24.3867 32.6 24.6C32.4133 24.7867 32.2267 24.88 32.04 24.88C31.9067 24.88 31.8133 24.8 31.76 24.64C31.7067 24.2667 31.4933 23.9733 31.12 23.76C30.7733 23.5467 30.36 23.4 29.88 23.32C29.4 23.2133 28.9467 23.16 28.52 23.16C27.4 23.16 26.2933 23.5467 25.2 24.32C24.1333 25.0667 23.1333 26.0133 22.2 27.16C21.2667 28.28 20.4267 29.44 19.68 30.64C18.96 31.84 18.3733 32.88 17.92 33.76C17.3333 34.9867 16.84 36.28 16.44 37.64C16.04 38.9733 15.84 40.1333 15.84 41.12C15.84 41.7867 15.9467 42.32 16.16 42.72C16.4 43.0933 16.7733 43.28 17.28 43.28C18.1333 43.2533 18.96 42.7733 19.76 41.84C20.5867 40.9067 21.4133 39.6667 22.24 38.12C23.0933 36.5733 23.96 34.8533 24.84 32.96C25.72 31.0667 26.6267 29.1467 27.56 27.2C27.88 27.2533 28.3067 27.3333 28.84 27.44C29.3733 27.52 29.9067 27.64 30.44 27.8C31 27.96 31.4533 28.16 31.8 28.4C32.1733 28.6133 32.36 28.8933 32.36 29.24C32.36 29.4267 32.3067 29.6133 32.2 29.8C31.1333 31.2133 30.2267 32.7733 29.48 34.48C28.76 36.16 28.2133 37.8 27.84 39.4C27.4667 40.9733 27.28 42.3333 27.28 43.48C27.28 43.88 27.36 44.1733 27.52 44.36C27.7067 44.52 27.84 44.6267 27.92 44.68C27.92 44.9733 27.72 45.1733 27.32 45.28C26.92 45.4133 26.5067 45.48 26.08 45.48ZM35.7897 45.36C34.163 45.36 32.923 45.0667 32.0697 44.48C31.2164 43.8933 30.7897 42.88 30.7897 41.44C30.7897 40.5067 30.9497 39.4667 31.2697 38.32C31.5897 37.1733 31.9897 36.0267 32.4697 34.88C32.9497 33.7067 33.4564 32.6 33.9897 31.56C34.523 30.52 35.0164 29.6267 35.4697 28.88C35.923 28.1067 36.2564 27.56 36.4697 27.24C37.003 26.4933 37.5897 25.7333 38.2297 24.96C38.8964 24.1867 39.6297 23.5333 40.4297 23C41.2564 22.4667 42.1497 22.2 43.1097 22.2C43.6164 22.2 44.1364 22.2933 44.6697 22.48C45.283 22.72 45.5897 22.96 45.5897 23.2C45.5897 23.36 45.4564 23.44 45.1897 23.44C45.083 23.44 44.923 23.5067 44.7097 23.64C44.523 23.7467 44.3497 23.88 44.1897 24.04C43.7097 24.52 43.1364 25.2 42.4697 26.08C41.8297 26.96 41.1497 27.9333 40.4297 29C39.7364 30.0667 39.0697 31.1733 38.4297 32.32C37.8164 33.44 37.2964 34.5067 36.8697 35.52C38.043 33.8933 39.083 32.48 39.9897 31.28C40.923 30.0533 41.883 29.0667 42.8697 28.32C43.163 28.1067 43.5364 28 43.9897 28C44.763 28 45.4564 28.2 46.0697 28.6C46.443 28.8667 46.6297 29.3867 46.6297 30.16C46.6297 30.8267 46.5097 31.6267 46.2697 32.56C46.0297 33.4933 45.7097 34.4667 45.3097 35.48C44.9364 36.4667 44.523 37.4267 44.0697 38.36L43.3497 39.8C43.2697 40.04 43.2297 40.2933 43.2297 40.56C43.2297 40.9067 43.3097 41.2133 43.4697 41.48C43.6297 41.7467 43.8564 41.88 44.1497 41.88C44.5497 41.88 45.003 41.5333 45.5097 40.84C45.883 40.3867 46.2297 39.8667 46.5497 39.28C46.8964 38.6667 47.203 38.0933 47.4697 37.56C47.7364 37.0267 47.9364 36.64 48.0697 36.4C48.1497 36.2133 48.2964 36.12 48.5097 36.12C48.6964 36.12 48.8564 36.1867 48.9897 36.32C49.123 36.4533 49.1364 36.6267 49.0297 36.84C48.7897 37.2933 48.483 37.8667 48.1097 38.56C47.763 39.2533 47.363 39.9467 46.9097 40.64C46.483 41.3067 46.0164 41.8533 45.5097 42.28C45.0297 42.68 44.563 42.88 44.1097 42.88C43.7097 42.88 43.3497 42.76 43.0297 42.52C42.7364 42.2533 42.523 41.9333 42.3897 41.56C41.6964 42.6533 40.843 43.56 39.8297 44.28C38.8164 45 37.4697 45.36 35.7897 45.36ZM35.1097 43.72C35.483 43.72 35.9497 43.3867 36.5097 42.72C37.0697 42.0267 37.643 41.16 38.2297 40.12C38.8164 39.0533 39.363 37.9333 39.8697 36.76C40.3764 35.5867 40.763 34.48 41.0297 33.44C41.323 32.4 41.443 31.5867 41.3897 31C41.043 31.3733 40.643 31.84 40.1897 32.4C39.763 32.9333 39.323 33.52 38.8697 34.16C38.8164 34.24 38.6297 34.5333 38.3097 35.04C38.0164 35.52 37.6564 36.1333 37.2297 36.88C36.803 37.6 36.3897 38.36 35.9897 39.16C35.5897 39.96 35.2564 40.7067 34.9897 41.4C34.723 42.0933 34.5897 42.6533 34.5897 43.08C34.5897 43.5067 34.763 43.72 35.1097 43.72ZM57.5634 45.24C56.3901 45.24 55.5501 44.8267 55.0434 44C54.5368 43.1733 54.2968 42.2133 54.3234 41.12C53.4968 42.6667 52.6434 43.72 51.7634 44.28C50.9101 44.8133 50.0434 45.08 49.1634 45.08C48.0968 45.08 47.3634 44.8 46.9634 44.24C46.5634 43.68 46.3634 43.0133 46.3634 42.24C46.3634 41.6267 46.4301 41.0133 46.5634 40.4C46.7234 39.76 46.8968 39.1733 47.0834 38.64C47.4301 37.6267 47.8034 36.6 48.2034 35.56C48.6301 34.4933 49.0434 33.5333 49.4434 32.68C49.8434 31.8267 50.1501 31.2 50.3634 30.8C50.8968 29.84 51.4968 29.1867 52.1634 28.84C52.8301 28.4667 53.5101 28.28 54.2034 28.28C54.4168 28.28 54.6301 28.2933 54.8434 28.32C55.0834 28.3467 55.2968 28.3867 55.4834 28.44C55.8301 28.52 56.0968 28.6 56.2834 28.68C56.4701 28.7333 56.5634 28.84 56.5634 29C56.5634 29.08 56.5234 29.2 56.4434 29.36C56.0701 30 55.6034 30.8267 55.0434 31.84C54.5101 32.8267 53.9634 33.8933 53.4034 35.04C52.8434 36.1867 52.3368 37.32 51.8834 38.44C51.4568 39.5333 51.1501 40.52 50.9634 41.4C50.9368 41.5333 50.9101 41.6533 50.8834 41.76C50.8834 41.8667 50.8834 41.9733 50.8834 42.08C50.8834 42.5333 51.0568 42.76 51.4034 42.76C51.7501 42.76 52.1234 42.4933 52.5234 41.96C52.9234 41.4267 53.3101 40.7867 53.6834 40.04C54.0834 39.2933 54.4168 38.6133 54.6834 38C54.9768 37.36 55.1634 36.96 55.2434 36.8C55.6968 35.8667 56.0968 34.9733 56.4434 34.12C56.8168 33.24 57.2168 32.3867 57.6434 31.56C58.2301 30.3867 58.8301 29.52 59.4434 28.96C60.0568 28.4 60.6968 28.0667 61.3634 27.96C61.5768 27.9067 61.7768 27.88 61.9634 27.88C62.1768 27.88 62.3768 27.88 62.5634 27.88C63.0168 27.88 63.4168 27.8933 63.7634 27.92C64.1368 27.9467 64.4034 27.9733 64.5634 28C65.0168 28.0267 65.2434 28.16 65.2434 28.4C65.2434 28.6933 65.0434 28.8667 64.6434 28.92C64.3768 28.9467 64.0168 29.2933 63.5634 29.96C63.1368 30.6 62.6834 31.36 62.2034 32.24C61.4568 33.6267 60.7368 35.12 60.0434 36.72C59.3501 38.2933 58.8568 39.88 58.5634 41.48C58.5368 41.6667 58.5101 41.84 58.4834 42C58.4834 42.1333 58.4834 42.2667 58.4834 42.4C58.4834 43.0667 58.6568 43.4 59.0034 43.4C59.4301 43.4 59.8701 43.1733 60.3234 42.72C60.7768 42.2667 61.2168 41.72 61.6434 41.08C62.0168 40.52 62.3901 39.8933 62.7634 39.2C63.1368 38.5067 63.4701 37.8667 63.7634 37.28C64.0568 36.6667 64.2701 36.24 64.4034 36C64.4834 35.84 64.5901 35.76 64.7234 35.76C64.8834 35.76 65.0301 35.88 65.1634 36.12C65.2968 36.3333 65.3101 36.5467 65.2034 36.76C64.6968 37.7467 64.1501 38.8 63.5634 39.92C62.9768 41.04 62.3368 42.0533 61.6434 42.96C60.4701 44.48 59.1101 45.24 57.5634 45.24Z" fill="white"/>
</svg>
