<svg width="437" height="91" viewBox="0 0 437 91" fill="none" xmlns="http://www.w3.org/2000/svg">
<path d="M120.609 87.707C120.766 87.9805 120.844 88.3125 120.844 88.7031C120.844 89.2891 120.629 89.7969 120.199 90.2266C119.809 90.6562 119.281 90.8711 118.617 90.8711C118.188 90.8711 117.797 90.7734 117.445 90.5781C117.133 90.3828 116.879 90.0898 116.684 89.6992C115.941 88.2539 115.277 86.457 114.691 84.3086C114.145 82.1211 113.656 79.6992 113.227 77.043C112.836 74.3867 112.504 71.5352 112.23 68.4883C111.996 65.4023 111.801 62.2188 111.645 58.9375C108.715 59.3281 105.414 59.7578 101.742 60.2266C98.1094 60.6953 93.9492 61.2422 89.2617 61.8672C85.9805 62.3359 82.6406 62.7461 79.2422 63.0977C70.8828 72.1992 62.0742 79.1133 52.8164 83.8398C43.5977 88.5273 34.3398 90.8711 25.043 90.8711C20.9023 90.8711 17.3086 90.4609 14.2617 89.6406C11.2539 88.8594 8.75391 87.9805 6.76172 87.0039C4.80859 85.9883 3.34375 85.0508 2.36719 84.1914C1.35156 83.332 0.804688 82.8633 0.726562 82.7852C0.335938 82.3945 0.140625 81.8867 0.140625 81.2617C0.140625 80.6367 0.355469 80.1094 0.785156 79.6797C1.21484 79.25 1.72266 79.0352 2.30859 79.0352C2.97266 79.0352 3.51953 79.2695 3.94922 79.7383C4.02734 79.8164 4.49609 80.2266 5.35547 80.9688C6.21484 81.6719 7.48438 82.4336 9.16406 83.2539C10.8828 84.0742 13.0508 84.8164 15.668 85.4805C18.2852 86.1445 21.3906 86.4766 24.9844 86.4766C29.9062 86.4766 34.6133 85.8125 39.1055 84.4844C43.5977 83.1562 47.8359 81.4375 51.8203 79.3281C55.8438 77.1797 59.5742 74.7383 63.0117 72.0039C66.4883 69.2695 69.6328 66.4961 72.4453 63.6836C69.6719 63.918 66.918 64.0938 64.1836 64.2109C61.4492 64.3281 58.7539 64.3867 56.0977 64.3867C50.8633 64.3867 45.8828 64.0938 41.1562 63.5078C36.4297 62.9219 32.2695 61.9453 28.6758 60.5781C25.082 59.1719 22.2109 57.3164 20.0625 55.0117C17.9531 52.707 16.8984 49.8359 16.8984 46.3984C16.8984 44.8359 17.2109 43.2734 17.8359 41.7109C18.5 40.1484 19.2812 38.7422 20.1797 37.4922C21.0781 36.2031 22.0156 35.168 22.9922 34.3867C23.9688 33.5664 24.8086 33.1562 25.5117 33.1562C26.0586 33.1562 26.5664 33.3516 27.0352 33.7422C27.5039 34.1328 27.7383 34.6602 27.7383 35.3242C27.7383 35.6758 27.6602 36.0273 27.5039 36.3789C27.3477 36.6914 27.1133 36.9453 26.8008 37.1406C26.7227 37.2188 26.3906 37.4922 25.8047 37.9609C25.2188 38.4297 24.5938 39.0742 23.9297 39.8945C23.2656 40.6758 22.6602 41.6328 22.1133 42.7656C21.5664 43.8594 21.293 45.0508 21.293 46.3398C21.293 48.5664 22.0547 50.5391 23.5781 52.2578C25.1406 53.9375 27.3867 55.3633 30.3164 56.5352C33.2852 57.668 36.918 58.5273 41.2148 59.1133C45.5117 59.6992 50.4141 59.9922 55.9219 59.9922C59.0859 59.9922 62.4258 59.8945 65.9414 59.6992C69.457 59.5039 73.168 59.2109 77.0742 58.8203C78.9492 56.75 80.6094 54.7969 82.0547 52.9609C83.5 51.125 84.7305 49.4844 85.7461 48.0391C87.4258 45.6562 89.1836 43.1172 91.0195 40.4219C92.8555 37.7266 94.6719 34.9922 96.4688 32.2188C98.3047 29.4453 100.082 26.7109 101.801 24.0156C103.559 21.2812 105.199 18.7227 106.723 16.3398C108.246 13.918 109.613 11.7305 110.824 9.77734C112.035 7.78516 113.031 6.14453 113.812 4.85547C114.047 3.80078 114.398 2.84375 114.867 1.98438C115.336 1.08594 116.098 0.636719 117.152 0.636719C117.738 0.636719 118.305 0.890625 118.852 1.39844C119.398 1.86719 119.672 2.47266 119.672 3.21484C119.672 3.76172 119.477 4.34766 119.086 4.97266C118.695 5.59766 118.324 6.125 117.973 6.55469C117.855 7.29688 117.66 8.87891 117.387 11.3008C117.152 13.7227 116.898 16.6914 116.625 20.207C116.391 23.6836 116.176 27.5312 115.98 31.75C115.824 35.9297 115.746 40.168 115.746 44.4648C115.746 46.0664 115.746 47.6484 115.746 49.2109C115.746 50.7734 115.785 52.3555 115.863 53.957C121.723 53.2148 126 52.707 128.695 52.4336C131.391 52.1211 132.816 51.9648 132.973 51.9648C133.48 51.9648 133.969 52.1797 134.438 52.6094C134.945 53 135.199 53.5273 135.199 54.1914C135.199 54.7383 135.004 55.2266 134.613 55.6562C134.262 56.0469 133.793 56.2812 133.207 56.3594C132.504 56.4375 131.684 56.5352 130.746 56.6523C129.809 56.7695 128.656 56.9062 127.289 57.0625C125.922 57.2188 124.32 57.4141 122.484 57.6484C120.648 57.8438 118.5 58.0977 116.039 58.4102C116.156 61.6133 116.332 64.6992 116.566 67.668C116.84 70.5977 117.152 73.332 117.504 75.8711C117.895 78.4102 118.344 80.6953 118.852 82.7266C119.359 84.7578 119.945 86.418 120.609 87.707ZM88.6758 57.4727C93.2852 56.8477 97.4648 56.3008 101.215 55.832C105.004 55.3242 108.422 54.875 111.469 54.4844C111.43 52.8047 111.391 51.125 111.352 49.4453C111.352 47.7656 111.352 46.0664 111.352 44.3477C111.352 38.8398 111.449 33.5859 111.645 28.5859C111.84 23.5469 112.113 19.1719 112.465 15.4609C110.902 17.9219 109.164 20.6563 107.25 23.6641C105.375 26.6328 103.422 29.6797 101.391 32.8047C99.3594 35.8906 97.3086 38.957 95.2383 42.0039C93.168 45.0508 91.1953 47.9023 89.3203 50.5586C88.3828 51.8867 87.4258 53.1758 86.4492 54.4258C85.4727 55.6758 84.4961 56.9062 83.5195 58.1172C84.3789 58.0391 85.2188 57.9414 86.0391 57.8242C86.8984 57.707 87.7773 57.5898 88.6758 57.4727ZM188.051 71.7695C187.934 72.0039 187.68 72.4922 187.289 73.2344C186.898 73.9375 186.391 74.7773 185.766 75.7539C185.141 76.6914 184.398 77.707 183.539 78.8008C182.68 79.8555 181.742 80.832 180.727 81.7305C179.711 82.6289 178.617 83.3711 177.445 83.957C176.273 84.543 175.062 84.8359 173.812 84.8359C171.781 84.8359 170.062 84.4844 168.656 83.7812C167.25 83.0391 166.098 82.2188 165.199 81.3203C164.574 82.6875 163.812 83.9375 162.914 85.0703C162.016 86.2031 161.02 87.1797 159.926 88C158.832 88.8594 157.66 89.5234 156.41 89.9922C155.199 90.4609 153.949 90.6953 152.66 90.6953C150.277 90.6953 148.246 89.9922 146.566 88.5859C144.887 87.1797 143.48 85.3047 142.348 82.9609C141.254 80.5781 140.395 77.8242 139.77 74.6992C139.145 71.5742 138.656 68.293 138.305 64.8555C137.992 61.418 137.797 57.9414 137.719 54.4258C137.641 50.9102 137.602 47.5703 137.602 44.4062C137.602 38.3516 137.777 33.1172 138.129 28.7031C138.48 24.25 138.949 20.4805 139.535 17.3945C140.16 14.2695 140.863 11.75 141.645 9.83594C142.465 7.88281 143.324 6.37891 144.223 5.32422C145.121 4.23047 146.039 3.48828 146.977 3.09766C147.914 2.70703 148.832 2.51172 149.73 2.51172C151.176 2.51172 152.445 2.94141 153.539 3.80078C154.672 4.66016 155.609 5.87109 156.352 7.43359C157.133 8.95703 157.719 10.8125 158.109 13C158.5 15.1875 158.695 17.5898 158.695 20.207C158.695 24.3867 158.246 28.7031 157.348 33.1562C156.449 37.6094 155.277 42.0625 153.832 46.5156C152.426 50.9297 150.844 55.2852 149.086 59.582C147.328 63.8398 145.59 67.8828 143.871 71.7109C144.105 73.625 144.457 75.4609 144.926 77.2188C145.395 78.9375 146 80.4805 146.742 81.8477C147.484 83.1758 148.363 84.25 149.379 85.0703C150.395 85.8516 151.566 86.2422 152.895 86.2422C154.223 86.2422 155.473 85.8711 156.645 85.1289C157.816 84.3477 158.832 83.3516 159.691 82.1406C160.551 80.8906 161.215 79.4844 161.684 77.9219C162.191 76.3594 162.445 74.7578 162.445 73.1172C162.445 72.0234 162.328 70.9297 162.094 69.8359C161.898 68.7031 161.566 67.707 161.098 66.8477C160.668 65.9492 160.121 65.2266 159.457 64.6797C158.793 64.1328 157.992 63.8594 157.055 63.8594C156.352 63.8594 155.805 64.0156 155.414 64.3281C155.023 64.6016 154.73 64.9336 154.535 65.3242C154.34 65.6758 154.223 66.0273 154.184 66.3789C154.145 66.7305 154.125 66.9648 154.125 67.082C154.125 67.6289 154.242 68.1758 154.477 68.7227C154.711 69.2695 155.16 69.7578 155.824 70.1875C156.488 70.6562 156.82 71.3008 156.82 72.1211C156.82 72.7852 156.586 73.3125 156.117 73.7031C155.688 74.0938 155.199 74.2891 154.652 74.2891C153.871 74.2891 153.168 74.0547 152.543 73.5859C151.957 73.1172 151.449 72.5312 151.02 71.8281C150.59 71.0859 150.258 70.3047 150.023 69.4844C149.789 68.6641 149.672 67.9023 149.672 67.1992C149.672 66.0664 149.867 65.0312 150.258 64.0938C150.648 63.1172 151.176 62.2969 151.84 61.6328C152.543 60.9297 153.324 60.4023 154.184 60.0508C155.082 59.6602 156.02 59.4648 156.996 59.4648C158.676 59.4648 160.121 59.8555 161.332 60.6367C162.582 61.418 163.617 62.4531 164.438 63.7422C165.258 65.0312 165.863 66.4961 166.254 68.1367C166.645 69.7773 166.84 71.4375 166.84 73.1172C166.84 74.0938 166.781 75.0508 166.664 75.9883C166.82 76.3008 167.074 76.7109 167.426 77.2188C167.777 77.7266 168.246 78.2148 168.832 78.6836C169.418 79.1523 170.121 79.5625 170.941 79.9141C171.762 80.2656 172.719 80.4414 173.812 80.4414C174.75 80.4414 175.707 80.0898 176.684 79.3867C177.699 78.6445 178.656 77.7461 179.555 76.6914C180.492 75.5977 181.352 74.4453 182.133 73.2344C182.914 71.9844 183.559 70.832 184.066 69.7773C184.262 69.3867 184.535 69.0938 184.887 68.8984C185.238 68.6641 185.629 68.5469 186.059 68.5469C186.723 68.5469 187.25 68.7812 187.641 69.25C188.07 69.7188 188.285 70.2461 188.285 70.832C188.285 71.0664 188.207 71.3789 188.051 71.7695ZM142.758 64.2109C144.086 60.9297 145.434 57.4922 146.801 53.8984C148.168 50.2656 149.398 46.5742 150.492 42.8242C151.586 39.0742 152.484 35.2852 153.188 31.457C153.891 27.6289 154.242 23.8594 154.242 20.1484C154.242 18.7422 154.164 17.2773 154.008 15.7539C153.891 14.1914 153.656 12.7656 153.305 11.4766C152.953 10.1875 152.465 9.11328 151.84 8.25391C151.254 7.39453 150.492 6.96484 149.555 6.96484C149.242 6.96484 148.832 7.17969 148.324 7.60938C147.855 8 147.348 8.72266 146.801 9.77734C146.254 10.793 145.707 12.2188 145.16 14.0547C144.613 15.8906 144.105 18.2344 143.637 21.0859C143.207 23.8984 142.836 27.2969 142.523 31.2812C142.25 35.2656 142.113 39.9531 142.113 45.3438C142.113 47.1406 142.133 48.9766 142.172 50.8516C142.211 52.6875 142.25 54.4453 142.289 56.125C142.367 57.8047 142.445 59.3477 142.523 60.7539C142.602 62.1602 142.68 63.3125 142.758 64.2109ZM203.578 81.4375C202.211 83.6641 200.609 85.4219 198.773 86.7109C196.977 88 195.16 88.6445 193.324 88.6445C191.84 88.6445 190.512 88.3711 189.34 87.8242C188.168 87.2773 187.152 86.5156 186.293 85.5391C185.434 84.5234 184.77 83.3125 184.301 81.9062C183.871 80.5 183.656 78.918 183.656 77.1602C183.656 74.4258 183.91 72.0039 184.418 69.8945C184.965 67.7852 185.551 66.0273 186.176 64.6211C186.801 63.1758 187.387 62.082 187.934 61.3398C188.48 60.5977 188.754 60.2266 188.754 60.2266C188.949 59.9922 189.184 59.8164 189.457 59.6992C189.77 59.582 190.082 59.5234 190.395 59.5234C191.02 59.5234 191.527 59.7578 191.918 60.2266C192.348 60.6562 192.562 61.1641 192.562 61.75C192.562 61.9844 192.504 62.2188 192.387 62.4531C192.309 62.6875 192.211 62.9219 192.094 63.1562C191.898 63.5078 191.586 64.0547 191.156 64.7969C190.727 65.5 190.277 66.4375 189.809 67.6094C189.34 68.7812 188.93 70.168 188.578 71.7695C188.227 73.332 188.051 75.1289 188.051 77.1602C188.051 79.4648 188.5 81.2227 189.398 82.4336C190.336 83.6055 191.645 84.1914 193.324 84.1914C194.027 84.1914 194.828 83.9766 195.727 83.5469C196.664 83.0781 197.562 82.375 198.422 81.4375C199.32 80.5 200.102 79.3086 200.766 77.8633C201.43 76.418 201.859 74.7188 202.055 72.7656L202.934 62.6875C203.012 62.1016 203.266 61.6133 203.695 61.2227C204.125 60.832 204.633 60.6367 205.219 60.6367C205.883 60.6367 206.41 60.8906 206.801 61.3984C207.191 61.8672 207.387 62.4141 207.387 63.0391L206.625 72.7656C206.547 73.5859 206.566 74.6602 206.684 75.9883C206.84 77.3164 207.133 78.625 207.562 79.9141C207.992 81.2031 208.637 82.3164 209.496 83.2539C210.355 84.1523 211.488 84.6016 212.895 84.6016C213.91 84.6016 214.906 84.3477 215.883 83.8398C216.859 83.293 217.797 82.5898 218.695 81.7305C219.594 80.8711 220.414 79.9141 221.156 78.8594C221.938 77.7656 222.641 76.6719 223.266 75.5781C223.93 74.4844 224.496 73.4492 224.965 72.4727C225.434 71.457 225.824 70.5977 226.137 69.8945C226.332 69.4648 226.605 69.1328 226.957 68.8984C227.309 68.6641 227.699 68.5469 228.129 68.5469C228.832 68.5469 229.379 68.7812 229.77 69.25C230.16 69.7188 230.355 70.2266 230.355 70.7734C230.355 71.0859 230.297 71.3789 230.18 71.6523C230.023 71.9648 229.711 72.6289 229.242 73.6445C228.812 74.6211 228.227 75.7539 227.484 77.043C226.781 78.293 225.922 79.6211 224.906 81.0273C223.891 82.4336 222.758 83.7422 221.508 84.9531C220.258 86.125 218.891 87.1016 217.406 87.8828C215.961 88.625 214.398 88.9961 212.719 88.9961C210.414 88.9961 208.5 88.3516 206.977 87.0625C205.453 85.7344 204.32 83.8594 203.578 81.4375ZM275.59 71.7695C275.473 72.0039 275.219 72.4922 274.828 73.2344C274.438 73.9375 273.93 74.7773 273.305 75.7539C272.68 76.6914 271.938 77.707 271.078 78.8008C270.219 79.8555 269.281 80.832 268.266 81.7305C267.25 82.6289 266.156 83.3711 264.984 83.957C263.812 84.543 262.602 84.8359 261.352 84.8359C259.32 84.8359 257.602 84.4844 256.195 83.7812C254.789 83.0391 253.637 82.2188 252.738 81.3203C252.113 82.6875 251.352 83.9375 250.453 85.0703C249.555 86.2031 248.559 87.1797 247.465 88C246.371 88.8594 245.199 89.5234 243.949 89.9922C242.738 90.4609 241.488 90.6953 240.199 90.6953C237.816 90.6953 235.785 89.9922 234.105 88.5859C232.426 87.1797 231.02 85.3047 229.887 82.9609C228.793 80.5781 227.934 77.8242 227.309 74.6992C226.684 71.5742 226.195 68.293 225.844 64.8555C225.531 61.418 225.336 57.9414 225.258 54.4258C225.18 50.9102 225.141 47.5703 225.141 44.4062C225.141 38.3516 225.316 33.1172 225.668 28.7031C226.02 24.25 226.488 20.4805 227.074 17.3945C227.699 14.2695 228.402 11.75 229.184 9.83594C230.004 7.88281 230.863 6.37891 231.762 5.32422C232.66 4.23047 233.578 3.48828 234.516 3.09766C235.453 2.70703 236.371 2.51172 237.27 2.51172C238.715 2.51172 239.984 2.94141 241.078 3.80078C242.211 4.66016 243.148 5.87109 243.891 7.43359C244.672 8.95703 245.258 10.8125 245.648 13C246.039 15.1875 246.234 17.5898 246.234 20.207C246.234 24.3867 245.785 28.7031 244.887 33.1562C243.988 37.6094 242.816 42.0625 241.371 46.5156C239.965 50.9297 238.383 55.2852 236.625 59.582C234.867 63.8398 233.129 67.8828 231.41 71.7109C231.645 73.625 231.996 75.4609 232.465 77.2188C232.934 78.9375 233.539 80.4805 234.281 81.8477C235.023 83.1758 235.902 84.25 236.918 85.0703C237.934 85.8516 239.105 86.2422 240.434 86.2422C241.762 86.2422 243.012 85.8711 244.184 85.1289C245.355 84.3477 246.371 83.3516 247.23 82.1406C248.09 80.8906 248.754 79.4844 249.223 77.9219C249.73 76.3594 249.984 74.7578 249.984 73.1172C249.984 72.0234 249.867 70.9297 249.633 69.8359C249.438 68.7031 249.105 67.707 248.637 66.8477C248.207 65.9492 247.66 65.2266 246.996 64.6797C246.332 64.1328 245.531 63.8594 244.594 63.8594C243.891 63.8594 243.344 64.0156 242.953 64.3281C242.562 64.6016 242.27 64.9336 242.074 65.3242C241.879 65.6758 241.762 66.0273 241.723 66.3789C241.684 66.7305 241.664 66.9648 241.664 67.082C241.664 67.6289 241.781 68.1758 242.016 68.7227C242.25 69.2695 242.699 69.7578 243.363 70.1875C244.027 70.6562 244.359 71.3008 244.359 72.1211C244.359 72.7852 244.125 73.3125 243.656 73.7031C243.227 74.0938 242.738 74.2891 242.191 74.2891C241.41 74.2891 240.707 74.0547 240.082 73.5859C239.496 73.1172 238.988 72.5312 238.559 71.8281C238.129 71.0859 237.797 70.3047 237.562 69.4844C237.328 68.6641 237.211 67.9023 237.211 67.1992C237.211 66.0664 237.406 65.0312 237.797 64.0938C238.188 63.1172 238.715 62.2969 239.379 61.6328C240.082 60.9297 240.863 60.4023 241.723 60.0508C242.621 59.6602 243.559 59.4648 244.535 59.4648C246.215 59.4648 247.66 59.8555 248.871 60.6367C250.121 61.418 251.156 62.4531 251.977 63.7422C252.797 65.0312 253.402 66.4961 253.793 68.1367C254.184 69.7773 254.379 71.4375 254.379 73.1172C254.379 74.0938 254.32 75.0508 254.203 75.9883C254.359 76.3008 254.613 76.7109 254.965 77.2188C255.316 77.7266 255.785 78.2148 256.371 78.6836C256.957 79.1523 257.66 79.5625 258.48 79.9141C259.301 80.2656 260.258 80.4414 261.352 80.4414C262.289 80.4414 263.246 80.0898 264.223 79.3867C265.238 78.6445 266.195 77.7461 267.094 76.6914C268.031 75.5977 268.891 74.4453 269.672 73.2344C270.453 71.9844 271.098 70.832 271.605 69.7773C271.801 69.3867 272.074 69.0938 272.426 68.8984C272.777 68.6641 273.168 68.5469 273.598 68.5469C274.262 68.5469 274.789 68.7812 275.18 69.25C275.609 69.7188 275.824 70.2461 275.824 70.832C275.824 71.0664 275.746 71.3789 275.59 71.7695ZM230.297 64.2109C231.625 60.9297 232.973 57.4922 234.34 53.8984C235.707 50.2656 236.938 46.5742 238.031 42.8242C239.125 39.0742 240.023 35.2852 240.727 31.457C241.43 27.6289 241.781 23.8594 241.781 20.1484C241.781 18.7422 241.703 17.2773 241.547 15.7539C241.43 14.1914 241.195 12.7656 240.844 11.4766C240.492 10.1875 240.004 9.11328 239.379 8.25391C238.793 7.39453 238.031 6.96484 237.094 6.96484C236.781 6.96484 236.371 7.17969 235.863 7.60938C235.395 8 234.887 8.72266 234.34 9.77734C233.793 10.793 233.246 12.2188 232.699 14.0547C232.152 15.8906 231.645 18.2344 231.176 21.0859C230.746 23.8984 230.375 27.2969 230.062 31.2812C229.789 35.2656 229.652 39.9531 229.652 45.3438C229.652 47.1406 229.672 48.9766 229.711 50.8516C229.75 52.6875 229.789 54.4453 229.828 56.125C229.906 57.8047 229.984 59.3477 230.062 60.7539C230.141 62.1602 230.219 63.3125 230.297 64.2109ZM316.957 71.6523C316.801 71.9648 316.469 72.6289 315.961 73.6445C315.492 74.6211 314.867 75.7539 314.086 77.043C313.344 78.332 312.465 79.6797 311.449 81.0859C310.434 82.4922 309.301 83.7812 308.051 84.9531C306.801 86.125 305.453 87.1016 304.008 87.8828C302.562 88.625 301.039 88.9961 299.438 88.9961C297.172 88.9961 295.258 88.2734 293.695 86.8281C292.172 85.3828 291.059 83.5664 290.355 81.3789C289.027 83.6055 287.445 85.3828 285.609 86.7109C283.773 88 281.938 88.6445 280.102 88.6445C278.656 88.6445 277.348 88.3906 276.176 87.8828C275.004 87.3359 274.008 86.5938 273.188 85.6562C272.367 84.6797 271.723 83.5469 271.254 82.2578C270.824 80.9688 270.609 79.5625 270.609 78.0391C270.609 74.9922 271.117 72.3164 272.133 70.0117C273.188 67.668 274.516 65.7148 276.117 64.1523C277.719 62.5898 279.477 61.418 281.391 60.6367C283.344 59.8555 285.219 59.4648 287.016 59.4648C288.227 59.4648 289.34 59.6406 290.355 59.9922C291.371 60.3047 292.23 60.6562 292.934 61.0469C293.676 61.4375 294.242 61.8086 294.633 62.1602C295.023 62.4727 295.238 62.6484 295.277 62.6875C295.707 63.1953 295.922 63.7227 295.922 64.2695C295.922 64.8555 295.707 65.3828 295.277 65.8516C294.848 66.2812 294.34 66.4961 293.754 66.4961C293.129 66.4961 292.602 66.2812 292.172 65.8516C292.094 65.7734 291.918 65.6367 291.645 65.4414C291.371 65.207 291 64.9727 290.531 64.7383C290.062 64.5039 289.496 64.3086 288.832 64.1523C288.207 63.957 287.484 63.8594 286.664 63.8594C285.453 63.8594 284.164 64.1328 282.797 64.6797C281.43 65.2266 280.18 66.0859 279.047 67.2578C277.914 68.3906 276.957 69.8359 276.176 71.5938C275.434 73.3125 275.062 75.3633 275.062 77.7461C275.062 78.4883 275.141 79.25 275.297 80.0312C275.453 80.7734 275.727 81.457 276.117 82.082C276.508 82.707 277.035 83.2148 277.699 83.6055C278.363 83.9961 279.184 84.1914 280.16 84.1914C280.863 84.1914 281.664 83.957 282.562 83.4883C283.5 83.0195 284.379 82.2969 285.199 81.3203C286.059 80.3438 286.82 79.1133 287.484 77.6289C288.188 76.1445 288.676 74.3867 288.949 72.3555C289.027 71.8086 289.281 71.3594 289.711 71.0078C290.141 70.6172 290.648 70.4219 291.234 70.4219C291.781 70.4219 292.25 70.6367 292.641 71.0664C293.07 71.4961 293.305 71.9844 293.344 72.5312C293.383 73.2734 293.461 74.3281 293.578 75.6953C293.695 77.0234 293.949 78.3516 294.34 79.6797C294.77 81.0078 295.395 82.1602 296.215 83.1367C297.035 84.1133 298.168 84.6016 299.613 84.6016C300.551 84.6016 301.469 84.3477 302.367 83.8398C303.305 83.332 304.203 82.668 305.062 81.8477C305.961 80.9883 306.801 80.0312 307.582 78.9766C308.402 77.8828 309.145 76.7891 309.809 75.6953C310.473 74.6016 311.059 73.5469 311.566 72.5312C312.074 71.5156 312.504 70.6367 312.855 69.8945C313.051 69.4648 313.324 69.1328 313.676 68.8984C314.066 68.6641 314.477 68.5469 314.906 68.5469C315.57 68.5469 316.098 68.8008 316.488 69.3086C316.918 69.7773 317.133 70.2852 317.133 70.832C317.133 71.1055 317.074 71.3789 316.957 71.6523ZM327.68 80.793C328.344 82.2773 329.438 83.4688 330.961 84.3672C332.484 85.2266 334.203 85.6562 336.117 85.6562C336.703 85.6562 337.66 85.5781 338.988 85.4219C340.316 85.2266 341.84 84.6406 343.559 83.6641C345.316 82.6484 347.172 81.0664 349.125 78.918C351.078 76.7695 352.973 73.7422 354.809 69.8359C355.004 69.4062 355.277 69.0938 355.629 68.8984C355.98 68.6641 356.371 68.5469 356.801 68.5469C357.465 68.5469 357.992 68.7812 358.383 69.25C358.812 69.7188 359.027 70.2266 359.027 70.7734C359.027 71.0078 358.949 71.3203 358.793 71.7109C357.426 74.5625 355.902 77.1211 354.223 79.3867C352.543 81.6133 350.727 83.5273 348.773 85.1289C346.82 86.6914 344.77 87.8828 342.621 88.7031C340.512 89.5625 338.344 89.9922 336.117 89.9922C334.359 89.9922 332.699 89.7188 331.137 89.1719C329.613 88.625 328.285 87.9023 327.152 87.0039C326.059 86.0664 325.18 85.0312 324.516 83.8984C323.891 82.7266 323.578 81.5352 323.578 80.3242C323.578 80.168 323.598 79.9531 323.637 79.6797C323.676 79.4062 323.773 79.1133 323.93 78.8008C324.125 78.4492 324.379 78.1367 324.691 77.8633C325.043 77.5508 325.512 77.2969 326.098 77.1016C327.699 76.6328 329.164 76.0664 330.492 75.4023C331.859 74.6992 333.031 73.918 334.008 73.0586C334.984 72.1992 335.746 71.2617 336.293 70.2461C336.84 69.1914 337.113 68.0586 337.113 66.8477C337.113 65.793 336.762 64.9336 336.059 64.2695C335.355 63.6055 334.496 63.2734 333.48 63.2734C332.426 63.2734 331.391 63.6445 330.375 64.3867C329.359 65.0898 328.363 66.0469 327.387 67.2578C326.449 68.4297 325.551 69.7969 324.691 71.3594C323.832 72.8828 323.031 74.4844 322.289 76.1641C321.586 77.8438 320.961 79.5234 320.414 81.2031C319.867 82.8438 319.418 84.3672 319.066 85.7734C318.949 86.2031 318.812 86.6719 318.656 87.1797C318.539 87.6875 318.344 88.1562 318.07 88.5859C317.797 89.0547 317.465 89.4258 317.074 89.6992C316.684 90.0117 316.176 90.168 315.551 90.168C314.965 90.168 314.398 89.9141 313.852 89.4062C313.305 88.9375 313.031 88.1172 313.031 86.9453C313.031 86.7109 313.031 85.8125 313.031 84.25C313.07 82.6875 313.109 80.6562 313.148 78.1562C313.188 75.6172 313.227 72.7266 313.266 69.4844C313.344 66.2031 313.402 62.7461 313.441 59.1133C313.48 55.4414 313.539 51.6719 313.617 47.8047C313.695 43.9375 313.754 40.168 313.793 36.4961C313.832 32.8242 313.871 29.3477 313.91 26.0664C313.988 22.7461 314.047 19.8164 314.086 17.2773C314.125 14.6992 314.145 12.6094 314.145 11.0078C314.184 9.36719 314.203 8.39062 314.203 8.07812C314.203 7.45312 314.438 6.94531 314.906 6.55469C315.375 6.125 315.883 5.91016 316.43 5.91016C317.055 5.91016 317.582 6.125 318.012 6.55469C318.441 6.94531 318.656 7.47266 318.656 8.13672C318.656 8.21484 318.637 8.99609 318.598 10.4805C318.598 11.9258 318.578 13.8789 318.539 16.3398C318.5 18.8008 318.441 21.6719 318.363 24.9531C318.324 28.2344 318.266 31.7305 318.188 35.4414C318.148 39.1133 318.09 42.9023 318.012 46.8086C317.973 50.7148 317.914 54.5234 317.836 58.2344C317.797 61.9453 317.758 65.4805 317.719 68.8398C317.68 72.1992 317.641 75.168 317.602 77.7461C318.227 75.7539 319.027 73.6641 320.004 71.4766C320.98 69.25 322.133 67.1992 323.461 65.3242C324.789 63.4492 326.273 61.9062 327.914 60.6953C329.594 59.4844 331.449 58.8789 333.48 58.8789C334.613 58.8789 335.668 59.0938 336.645 59.5234C337.621 59.9141 338.461 60.4805 339.164 61.2227C339.906 61.9258 340.473 62.7656 340.863 63.7422C341.293 64.7188 341.508 65.7734 341.508 66.9062C341.508 68.6641 341.117 70.2852 340.336 71.7695C339.555 73.2148 338.52 74.5234 337.23 75.6953C335.941 76.8281 334.457 77.8242 332.777 78.6836C331.137 79.543 329.438 80.2461 327.68 80.793ZM400.16 71.6523C400.004 71.9648 399.672 72.6289 399.164 73.6445C398.695 74.6211 398.07 75.7539 397.289 77.043C396.547 78.332 395.668 79.6797 394.652 81.0859C393.637 82.4922 392.504 83.7812 391.254 84.9531C390.004 86.125 388.656 87.1016 387.211 87.8828C385.766 88.625 384.242 88.9961 382.641 88.9961C380.375 88.9961 378.461 88.2734 376.898 86.8281C375.375 85.3828 374.262 83.5664 373.559 81.3789C372.23 83.6055 370.648 85.3828 368.812 86.7109C366.977 88 365.141 88.6445 363.305 88.6445C361.859 88.6445 360.551 88.3906 359.379 87.8828C358.207 87.3359 357.211 86.5938 356.391 85.6562C355.57 84.6797 354.926 83.5469 354.457 82.2578C354.027 80.9688 353.812 79.5625 353.812 78.0391C353.812 74.9922 354.32 72.3164 355.336 70.0117C356.391 67.668 357.719 65.7148 359.32 64.1523C360.922 62.5898 362.68 61.418 364.594 60.6367C366.547 59.8555 368.422 59.4648 370.219 59.4648C371.43 59.4648 372.543 59.6406 373.559 59.9922C374.574 60.3047 375.434 60.6562 376.137 61.0469C376.879 61.4375 377.445 61.8086 377.836 62.1602C378.227 62.4727 378.441 62.6484 378.48 62.6875C378.91 63.1953 379.125 63.7227 379.125 64.2695C379.125 64.8555 378.91 65.3828 378.48 65.8516C378.051 66.2812 377.543 66.4961 376.957 66.4961C376.332 66.4961 375.805 66.2812 375.375 65.8516C375.297 65.7734 375.121 65.6367 374.848 65.4414C374.574 65.207 374.203 64.9727 373.734 64.7383C373.266 64.5039 372.699 64.3086 372.035 64.1523C371.41 63.957 370.688 63.8594 369.867 63.8594C368.656 63.8594 367.367 64.1328 366 64.6797C364.633 65.2266 363.383 66.0859 362.25 67.2578C361.117 68.3906 360.16 69.8359 359.379 71.5938C358.637 73.3125 358.266 75.3633 358.266 77.7461C358.266 78.4883 358.344 79.25 358.5 80.0312C358.656 80.7734 358.93 81.457 359.32 82.082C359.711 82.707 360.238 83.2148 360.902 83.6055C361.566 83.9961 362.387 84.1914 363.363 84.1914C364.066 84.1914 364.867 83.957 365.766 83.4883C366.703 83.0195 367.582 82.2969 368.402 81.3203C369.262 80.3438 370.023 79.1133 370.688 77.6289C371.391 76.1445 371.879 74.3867 372.152 72.3555C372.23 71.8086 372.484 71.3594 372.914 71.0078C373.344 70.6172 373.852 70.4219 374.438 70.4219C374.984 70.4219 375.453 70.6367 375.844 71.0664C376.273 71.4961 376.508 71.9844 376.547 72.5312C376.586 73.2734 376.664 74.3281 376.781 75.6953C376.898 77.0234 377.152 78.3516 377.543 79.6797C377.973 81.0078 378.598 82.1602 379.418 83.1367C380.238 84.1133 381.371 84.6016 382.816 84.6016C383.754 84.6016 384.672 84.3477 385.57 83.8398C386.508 83.332 387.406 82.668 388.266 81.8477C389.164 80.9883 390.004 80.0312 390.785 78.9766C391.605 77.8828 392.348 76.7891 393.012 75.6953C393.676 74.6016 394.262 73.5469 394.77 72.5312C395.277 71.5156 395.707 70.6367 396.059 69.8945C396.254 69.4648 396.527 69.1328 396.879 68.8984C397.27 68.6641 397.68 68.5469 398.109 68.5469C398.773 68.5469 399.301 68.8008 399.691 69.3086C400.121 69.7773 400.336 70.2852 400.336 70.832C400.336 71.1055 400.277 71.3789 400.16 71.6523ZM402.27 63.918C402.113 64.9727 401.918 65.9688 401.684 66.9062C401.449 67.8047 401.215 68.6055 400.98 69.3086C400.785 69.9727 400.609 70.5195 400.453 70.9492C400.297 71.3789 400.199 71.6133 400.16 71.6523C399.77 72.5508 399.086 73 398.109 73C397.562 73 397.055 72.8047 396.586 72.4141C396.117 71.9844 395.883 71.457 395.883 70.832C395.883 70.5977 395.922 70.4219 396 70.3047C396.078 70.1875 396.195 69.9531 396.352 69.6016C396.508 69.25 396.703 68.6641 396.938 67.8438C397.172 67.0234 397.465 65.7539 397.816 64.0352C397.152 64.0352 396.469 64.0156 395.766 63.9766C395.062 63.9375 394.418 63.8008 393.832 63.5664C393.207 63.332 392.699 62.9609 392.309 62.4531C391.918 61.9453 391.723 61.2422 391.723 60.3438C391.723 59.6797 391.918 58.7812 392.309 57.6484C392.66 56.5156 393.148 55.4023 393.773 54.3086C394.398 53.2148 395.102 52.2773 395.883 51.4961C396.664 50.6758 397.445 50.2656 398.227 50.2656C399.125 50.2656 399.848 50.5977 400.395 51.2617C400.98 51.9258 401.43 52.7461 401.742 53.7227C402.055 54.6602 402.27 55.6562 402.387 56.7109C402.543 57.7656 402.621 58.6836 402.621 59.4648C403.285 59.4648 403.93 59.4648 404.555 59.4648C405.219 59.4258 405.844 59.4062 406.43 59.4062C408.656 59.4062 410.355 59.8945 411.527 60.8711C412.699 61.8477 413.285 63.4492 413.285 65.6758C413.285 66.5742 413.227 67.5117 413.109 68.4883C412.992 69.4648 412.855 70.4805 412.699 71.5352C412.543 72.5508 412.406 73.5664 412.289 74.582C412.172 75.5977 412.113 76.5938 412.113 77.5703C412.113 78.9766 412.309 80.1484 412.699 81.0859C413.09 81.9844 413.578 82.707 414.164 83.2539C414.75 83.8008 415.375 84.1914 416.039 84.4258C416.703 84.6211 417.309 84.7188 417.855 84.7188C419.535 84.7188 421.117 84.1719 422.602 83.0781C424.086 81.9844 425.453 80.6758 426.703 79.1523C427.953 77.5898 429.066 75.9492 430.043 74.2305C431.059 72.5117 431.898 71.0078 432.562 69.7188C432.758 69.3672 433.031 69.0938 433.383 68.8984C433.734 68.7031 434.105 68.6055 434.496 68.6055C435.199 68.6055 435.746 68.8398 436.137 69.3086C436.527 69.7383 436.723 70.2266 436.723 70.7734C436.723 71.1641 436.645 71.5156 436.488 71.8281C435.59 73.4297 434.535 75.2461 433.324 77.2773C432.152 79.2695 430.805 81.1445 429.281 82.9023C427.758 84.6602 426.039 86.1445 424.125 87.3555C422.25 88.5664 420.18 89.1719 417.914 89.1719C416.508 89.1719 415.18 88.8984 413.93 88.3516C412.68 87.8438 411.586 87.1016 410.648 86.125C409.75 85.1094 409.027 83.8789 408.48 82.4336C407.934 80.9492 407.66 79.2891 407.66 77.4531C407.66 75.5 407.855 73.5664 408.246 71.6523C408.637 69.6992 408.832 67.8438 408.832 66.0859C408.832 65.3438 408.656 64.7969 408.305 64.4453C407.992 64.0547 407.27 63.8594 406.137 63.8594C405.59 63.8594 404.984 63.8594 404.32 63.8594C403.695 63.8594 403.012 63.8789 402.27 63.918ZM398.344 59.582C398.344 59.3086 398.324 58.957 398.285 58.5273C398.285 58.0586 398.246 57.6094 398.168 57.1797C398.129 56.75 398.051 56.3789 397.934 56.0664C397.855 55.7539 397.758 55.5977 397.641 55.5977C397.523 55.5977 397.367 55.7539 397.172 56.0664C397.016 56.3398 396.84 56.6914 396.645 57.1211C396.449 57.5117 396.273 57.9414 396.117 58.4102C395.961 58.8789 395.844 59.2695 395.766 59.582H398.344Z" fill="#AC0E0F"/>
</svg>
