<svg width="179" height="145" viewBox="0 0 179 145" fill="none" xmlns="http://www.w3.org/2000/svg">
<path d="M107.039 48.2773C110.398 49.2148 113.25 50.2891 115.594 51.5C117.977 52.7109 119.969 53.9805 121.57 55.3086C123.211 56.5977 124.5 57.9258 125.438 59.293C126.375 60.6602 127.098 61.9688 127.605 63.2188C128.113 64.4688 128.426 65.6406 128.543 66.7344C128.699 67.7891 128.777 68.6875 128.777 69.4297C128.777 72.1641 128.25 74.6055 127.195 76.7539C126.18 78.9023 124.793 80.7969 123.035 82.4375C121.277 84.0781 119.227 85.4648 116.883 86.5977C114.578 87.7305 112.156 88.6484 109.617 89.3516C107.078 90.0938 104.48 90.6211 101.824 90.9336C99.168 91.2852 96.6484 91.4609 94.2656 91.4609C90.3984 91.4609 86.3945 91.0703 82.2539 90.2891C78.1523 89.5078 73.9922 88.2383 69.7734 86.4805C68.8359 86.0898 68.3672 85.4062 68.3672 84.4297C68.3672 83.7656 68.6016 83.2383 69.0703 82.8477C69.5391 82.418 70.0469 82.2031 70.5938 82.2031C70.8672 82.2031 71.1602 82.2617 71.4727 82.3789C75.1055 83.9023 78.8359 85.0547 82.6641 85.8359C86.4922 86.6172 90.3398 87.0078 94.207 87.0078C99.4805 87.0078 104.012 86.5 107.801 85.4844C111.59 84.4688 114.695 83.1406 117.117 81.5C119.578 79.8203 121.395 77.9453 122.566 75.875C123.738 73.7656 124.324 71.6367 124.324 69.4883C124.324 67.1055 123.66 64.8984 122.332 62.8672C121.043 60.8359 119.188 59.0195 116.766 57.418C114.383 55.8164 111.512 54.4492 108.152 53.3164C104.793 52.1836 101.062 51.3438 96.9609 50.7969C94.2656 51.2656 91.6484 51.5977 89.1094 51.793C86.5703 51.9883 84.2266 52.0859 82.0781 52.0859H80.7305C80.457 52.0859 80.2031 52.0664 79.9688 52.0273C77.1562 58.7852 73.7969 64.625 69.8906 69.5469C66.0234 74.4688 61.8828 78.5508 57.4688 81.793C53.0938 84.9961 48.582 87.3789 43.9336 88.9414C39.3242 90.4648 34.8906 91.2266 30.6328 91.2266C26.2188 91.2266 22.1562 90.6016 18.4453 89.3516C14.7734 88.1406 11.6094 86.4023 8.95312 84.1367C6.29688 81.8711 4.22656 79.1367 2.74219 75.9336C1.25781 72.6914 0.515625 69.0781 0.515625 65.0938C0.515625 60.9531 1.31641 56.6758 2.91797 52.2617C4.55859 47.8086 6.98047 43.2969 10.1836 38.7266C13.2305 34.4297 16.6094 30.582 20.3203 27.1836C24.0312 23.7461 27.918 20.7383 31.9805 18.1602C36.082 15.582 40.3008 13.375 44.6367 11.5391C48.9727 9.70313 53.2695 8.19922 57.5273 7.02734C61.8242 5.85547 66.0039 5.01563 70.0664 4.50781C74.168 3.96094 78.0156 3.6875 81.6094 3.6875C84.5391 3.6875 87.332 3.78516 89.9883 3.98047C92.6445 4.17578 95.1836 4.46875 97.6055 4.85938C99.0117 3.29687 100.145 2.18359 101.004 1.51953C101.863 0.816406 102.352 0.425781 102.469 0.347656C102.938 0.113281 103.348 -0.00390625 103.699 -0.00390625C104.246 -0.00390625 104.734 0.152344 105.164 0.464844C105.594 0.777344 105.809 1.22656 105.809 1.8125C105.809 2.59375 105.535 3.25781 104.988 3.80469C104.441 4.3125 103.699 5.01563 102.762 5.91406C109.91 7.67188 115.379 10.3281 119.168 13.8828C122.957 17.3984 124.852 21.7539 124.852 26.9492C124.852 29.8008 124.383 32.3594 123.445 34.625C122.508 36.8906 121.219 38.8828 119.578 40.6016C117.977 42.3203 116.082 43.8242 113.895 45.1133C111.746 46.3633 109.461 47.418 107.039 48.2773ZM97.0195 46.3438C98.7383 46.0312 100.496 45.6211 102.293 45.1133C104.129 44.6055 105.906 44 107.625 43.2969C109.383 42.5547 111.043 41.6953 112.605 40.7188C114.168 39.7031 115.516 38.5312 116.648 37.2031C117.82 35.8359 118.738 34.3125 119.402 32.6328C120.105 30.9531 120.457 29.0391 120.457 26.8906C120.457 22.5156 118.641 18.9023 115.008 16.0508C111.375 13.1992 106.16 11.0898 99.3633 9.72266C97.4102 12.1445 95.5742 14.8203 93.8555 17.75C92.1367 20.6797 90.5547 23.7266 89.1094 26.8906C87.6641 30.0156 86.3555 33.1992 85.1836 36.4414C84.0508 39.6445 83.1133 42.75 82.3711 45.7578C83.1523 45.7188 83.875 45.6992 84.5391 45.6992C85.2031 45.6992 85.7695 45.6992 86.2383 45.6992C87.7617 45.6992 89.4219 45.7578 91.2188 45.875C93.0156 45.9531 94.9492 46.1094 97.0195 46.3438ZM94.3828 8.90234C92.3906 8.62891 90.3398 8.43359 88.2305 8.31641C86.1211 8.19922 83.9141 8.14062 81.6094 8.14062C78.1719 8.14062 74.5195 8.39453 70.6523 8.90234C66.7852 9.41016 62.8203 10.2109 58.7578 11.3047C54.6953 12.3984 50.5938 13.8242 46.4531 15.582C42.3516 17.3008 38.3477 19.3906 34.4414 21.8516C30.5742 24.2734 26.8828 27.1055 23.3672 30.3477C19.8516 33.5898 16.6484 37.2422 13.7578 41.3047C10.8281 45.4453 8.62109 49.5273 7.13672 53.5508C5.65234 57.5742 4.91016 61.4023 4.91016 65.0352C4.91016 68.4336 5.51562 71.4805 6.72656 74.1758C7.97656 76.8711 9.73438 79.1562 12 81.0312C14.2656 82.8672 16.9805 84.293 20.1445 85.3086C23.3086 86.2852 26.8047 86.7734 30.6328 86.7734C34.4609 86.7734 38.4453 86.0898 42.5859 84.7227C46.7266 83.3164 50.7695 81.1875 54.7148 78.3359C58.6602 75.4453 62.4102 71.8125 65.9648 67.4375C69.5195 63.0234 72.625 57.7891 75.2812 51.7344C74.5781 51.7344 73.8555 51.5391 73.1133 51.1484C72.3711 50.7188 72 50.0547 72 49.1562C72 48.2188 72.4492 47.5547 73.3477 47.1641C74.2461 46.7344 75.6523 46.3828 77.5664 46.1094C78.6211 42.9062 79.6953 39.7031 80.7891 36.5C81.8828 33.2969 83.0938 30.1328 84.4219 27.0078C85.75 23.8828 87.2148 20.8164 88.8164 17.8086C90.418 14.7617 92.2734 11.793 94.3828 8.90234ZM159.305 89.8203C160.672 88.4531 162.059 87.0664 163.465 85.6602C164.871 84.2148 166.238 82.7109 167.566 81.1484C168.895 79.5859 170.125 77.9648 171.258 76.2852C172.43 74.5664 173.465 72.75 174.363 70.8359C174.559 70.4062 174.832 70.0938 175.184 69.8984C175.535 69.6641 175.926 69.5469 176.355 69.5469C177.02 69.5469 177.547 69.7812 177.938 70.25C178.367 70.7188 178.582 71.2461 178.582 71.832C178.582 72.1445 178.523 72.4375 178.406 72.7109C177.195 75.25 175.809 77.5742 174.246 79.6836C172.684 81.793 171.043 83.8047 169.324 85.7188C167.605 87.5938 165.867 89.4102 164.109 91.168C162.352 92.9648 160.672 94.7617 159.07 96.5586C158.914 99.2539 158.914 101.949 159.07 104.645C159.227 107.379 159.305 110.27 159.305 113.316C159.305 115.816 159.227 118.316 159.07 120.816C158.914 123.316 158.66 125.699 158.309 127.965C157.957 130.27 157.469 132.418 156.844 134.41C156.258 136.402 155.496 138.121 154.559 139.566C153.621 141.051 152.527 142.203 151.277 143.023C150.027 143.883 148.562 144.312 146.883 144.312C144.109 144.312 141.98 143.355 140.496 141.441C139.012 139.527 138.27 136.852 138.27 133.414C138.27 131.539 138.465 129.527 138.855 127.379C139.285 125.23 139.871 123.004 140.613 120.699C141.355 118.434 142.234 116.129 143.25 113.785C144.305 111.441 145.438 109.156 146.648 106.93C147.859 104.703 149.148 102.574 150.516 100.543C151.883 98.5508 153.27 96.7344 154.676 95.0938C154.754 93.2188 154.832 91.2656 154.91 89.2344C155.027 87.2422 155.145 85.3867 155.262 83.668C154.246 85.4648 152.977 86.9102 151.453 88.0039C149.969 89.0977 148.328 89.6445 146.531 89.6445C143.562 89.6445 141.238 88.6484 139.559 86.6562C137.879 84.6641 137.039 81.9297 137.039 78.4531C137.039 75.9141 137.273 73.6094 137.742 71.5391C138.25 69.4297 138.777 67.6328 139.324 66.1484C139.91 64.625 140.438 63.4727 140.906 62.6914C141.375 61.8711 141.609 61.4805 141.609 61.5195C142.039 60.8555 142.645 60.5234 143.426 60.5234C144.09 60.5234 144.617 60.7578 145.008 61.2266C145.438 61.6562 145.652 62.1641 145.652 62.75C145.652 63.1797 145.535 63.5703 145.301 63.9219C145.34 63.8828 145.145 64.2148 144.715 64.918C144.324 65.582 143.875 66.5586 143.367 67.8477C142.898 69.1367 142.449 70.6797 142.02 72.4766C141.629 74.2734 141.434 76.2461 141.434 78.3945C141.434 80.543 141.824 82.2227 142.605 83.4336C143.387 84.6445 144.656 85.25 146.414 85.25C148.641 85.25 150.652 83.6094 152.449 80.3281C154.246 77.0078 155.77 72.2031 157.02 65.9141C157.098 65.4062 157.332 64.9961 157.723 64.6836C158.113 64.332 158.582 64.1562 159.129 64.1562C159.754 64.1562 160.281 64.3711 160.711 64.8008C161.141 65.2305 161.355 65.7578 161.355 66.3828C161.355 66.5 161.277 67.2031 161.121 68.4922C160.965 69.7422 160.77 71.4219 160.535 73.5312C160.34 75.6406 160.125 78.1016 159.891 80.9141C159.656 83.6875 159.461 86.6562 159.305 89.8203ZM154.617 102.242C152.859 104.781 151.238 107.457 149.754 110.27C148.309 113.082 147.059 115.875 146.004 118.648C144.949 121.422 144.129 124.078 143.543 126.617C142.957 129.156 142.664 131.422 142.664 133.414C142.664 135.445 142.996 137.027 143.66 138.16C144.324 139.332 145.379 139.918 146.824 139.918C148.113 139.918 149.246 139.273 150.223 137.984C151.238 136.734 152.078 134.938 152.742 132.594C153.445 130.25 153.973 127.398 154.324 124.039C154.676 120.719 154.852 116.988 154.852 112.848C154.852 111.168 154.812 109.469 154.734 107.75C154.695 106.031 154.656 104.195 154.617 102.242Z" fill="#AC0E0F"/>
</svg>
