<svg width="803" height="255" viewBox="0 0 803 255" fill="none" xmlns="http://www.w3.org/2000/svg">
<path d="M61.8 199.8C51 199.8 41.4667 197.867 33.2 194C24.9333 190.133 18.4667 184.6 13.8 177.4C9.13333 170.2 6.8 161.533 6.8 151.4V145.8H32.8V151.4C32.8 159.8 35.4 166.133 40.6 170.4C45.8 174.533 52.8667 176.6 61.8 176.6C70.8667 176.6 77.6 174.8 82 171.2C86.5333 167.6 88.8 163 88.8 157.4C88.8 153.533 87.6667 150.4 85.4 148C83.2667 145.6 80.0667 143.667 75.8 142.2C71.6667 140.6 66.6 139.133 60.6 137.8L56 136.8C46.4 134.667 38.1333 132 31.2 128.8C24.4 125.467 19.1333 121.133 15.4 115.8C11.8 110.467 10 103.533 10 95C10 86.4667 12 79.2 16 73.2C20.1333 67.0667 25.8667 62.4 33.2 59.2C40.6667 55.8667 49.4 54.2 59.4 54.2C69.4 54.2 78.2667 55.9333 86 59.4C93.8667 62.7333 100 67.8 104.4 74.6C108.933 81.2667 111.2 89.6667 111.2 99.8V105.8H85.2V99.8C85.2 94.4667 84.1333 90.2 82 87C80 83.6667 77.0667 81.2667 73.2 79.8C69.3333 78.2 64.7333 77.4 59.4 77.4C51.4 77.4 45.4667 78.9333 41.6 82C37.8667 84.9333 36 89 36 94.2C36 97.6667 36.8667 100.6 38.6 103C40.4667 105.4 43.2 107.4 46.8 109C50.4 110.6 55 112 60.6 113.2L65.2 114.2C75.2 116.333 83.8667 119.067 91.2 122.4C98.6667 125.733 104.467 130.133 108.6 135.6C112.733 141.067 114.8 148.067 114.8 156.6C114.8 165.133 112.6 172.667 108.2 179.2C103.933 185.6 97.8 190.667 89.8 194.4C81.9333 198 72.6 199.8 61.8 199.8ZM173.289 197C166.756 197 161.422 195 157.289 191C153.289 186.867 151.289 181.4 151.289 174.6V118.6H126.489V97.8H151.289V67H176.489V97.8H203.689V118.6H176.489V170.2C176.489 174.2 178.356 176.2 182.089 176.2H201.289V197H173.289ZM264.3 198.6C256.567 198.6 249.767 196.867 243.9 193.4C238.167 189.8 233.7 184.867 230.5 178.6C227.3 172.333 225.7 165.133 225.7 157V97.8H250.9V155C250.9 162.467 252.7 168.067 256.3 171.8C260.033 175.533 265.3 177.4 272.1 177.4C279.833 177.4 285.833 174.867 290.1 169.8C294.367 164.6 296.5 157.4 296.5 148.2V97.8H321.7V197H296.9V184H293.3C291.7 187.333 288.7 190.6 284.3 193.8C279.9 197 273.233 198.6 264.3 198.6ZM409.342 199.8C400.409 199.8 393.542 198.267 388.742 195.2C383.942 192.133 380.409 188.733 378.142 185H374.542V197H349.742V57H374.942V109.2H378.542C380.009 106.8 381.942 104.533 384.342 102.4C386.876 100.267 390.142 98.5333 394.142 97.2C398.276 95.7333 403.342 95 409.342 95C417.342 95 424.742 97 431.542 101C438.342 104.867 443.809 110.6 447.942 118.2C452.076 125.8 454.142 135 454.142 145.8V149C454.142 159.8 452.076 169 447.942 176.6C443.809 184.2 438.342 190 431.542 194C424.742 197.867 417.342 199.8 409.342 199.8ZM401.742 177.8C409.476 177.8 415.942 175.333 421.142 170.4C426.342 165.333 428.942 158 428.942 148.4V146.4C428.942 136.8 426.342 129.533 421.142 124.6C416.076 119.533 409.609 117 401.742 117C394.009 117 387.542 119.533 382.342 124.6C377.142 129.533 374.542 136.8 374.542 146.4V148.4C374.542 158 377.142 165.333 382.342 170.4C387.542 175.333 394.009 177.8 401.742 177.8ZM508.081 199.8C501.015 199.8 494.681 198.6 489.081 196.2C483.481 193.667 479.015 190.067 475.681 185.4C472.481 180.6 470.881 174.8 470.881 168C470.881 161.2 472.481 155.533 475.681 151C479.015 146.333 483.548 142.867 489.281 140.6C495.148 138.2 501.815 137 509.281 137H536.481V131.4C536.481 126.733 535.015 122.933 532.081 120C529.148 116.933 524.481 115.4 518.081 115.4C511.815 115.4 507.148 116.867 504.081 119.8C501.015 122.6 499.015 126.267 498.081 130.8L474.881 123C476.481 117.933 479.015 113.333 482.481 109.2C486.081 104.933 490.815 101.533 496.681 99C502.681 96.3333 509.948 95 518.481 95C531.548 95 541.881 98.2667 549.481 104.8C557.081 111.333 560.881 120.8 560.881 133.2V170.2C560.881 174.2 562.748 176.2 566.481 176.2H574.481V197H557.681C552.748 197 548.681 195.8 545.481 193.4C542.281 191 540.681 187.8 540.681 183.8V183.6H536.881C536.348 185.2 535.148 187.333 533.281 190C531.415 192.533 528.481 194.8 524.481 196.8C520.481 198.8 515.015 199.8 508.081 199.8ZM512.481 179.4C519.548 179.4 525.281 177.467 529.681 173.6C534.215 169.6 536.481 164.333 536.481 157.8V155.8H511.081C506.415 155.8 502.748 156.8 500.081 158.8C497.415 160.8 496.081 163.6 496.081 167.2C496.081 170.8 497.481 173.733 500.281 176C503.081 178.267 507.148 179.4 512.481 179.4ZM592.906 197V57H618.106V134.4H621.706L654.506 97.8H687.306L641.506 145.8L688.906 197H656.506L621.706 157.6H618.106V197H592.906ZM742.197 101.4V57H758.197L766.597 93.8H768.597L776.997 57H792.997V101.4H784.597V64.6H782.597L774.197 101.4H760.997L752.597 64.6H750.597V101.4H742.197ZM712.997 101.4V64.6H698.197V57H736.197V64.6H721.397V101.4H712.997Z" fill="black"/>
</svg>
