<svg width="294" height="17" viewBox="0 0 294 17" fill="none" xmlns="http://www.w3.org/2000/svg">
<circle cx="16.5" cy="5.5" r="2.5" fill="#D9D9D9"/>
<circle cx="9.5" cy="5.5" r="2.5" fill="#D9D9D9"/>
<circle cx="2.5" cy="5.5" r="2.5" fill="#D9D9D9"/>
<circle cx="23.5" cy="5.5" r="2.5" fill="#D9D9D9"/>
<circle cx="30.5" cy="5.5" r="2.5" fill="#D9D9D9"/>
<circle cx="37.5" cy="5.5" r="2.5" fill="#D9D9D9"/>
<circle cx="44.5" cy="5.5" r="2.5" fill="#D9D9D9"/>
<circle cx="51.5" cy="5.5" r="2.5" fill="#D9D9D9"/>
<circle cx="58.5" cy="5.5" r="2.5" fill="#D9D9D9"/>
<circle cx="65.5" cy="5.5" r="2.5" fill="#D9D9D9"/>
<circle cx="72.5" cy="5.5" r="2.5" fill="#D9D9D9"/>
<circle cx="79.5" cy="5.5" r="2.5" fill="#D9D9D9"/>
<circle cx="86.5" cy="5.5" r="2.5" fill="#D9D9D9"/>
<circle cx="93.5" cy="5.5" r="2.5" fill="#D9D9D9"/>
<circle cx="100.5" cy="5.5" r="2.5" fill="#D9D9D9"/>
<circle cx="107.5" cy="5.5" r="2.5" fill="#D9D9D9"/>
<path fill-rule="evenodd" clip-rule="evenodd" d="M141.517 0.0335688L139.999 0.0376074C139.262 0.0395669 138.78 0.810503 139.101 1.47356L146.21 16.1482C146.575 16.9025 147.651 16.8996 148.012 16.1434L155.042 1.43116C155.36 0.766406 154.874 -0.00195572 154.137 3.74e-06L152.498 0.00436257C151.571 1.76791 149.458 2.99995 147 2.99995C144.555 2.99995 142.452 1.7815 141.517 0.0335688Z" fill="#029D66"/>
<circle cx="186.5" cy="5.5" r="2.5" fill="#D9D9D9"/>
<circle cx="193.5" cy="5.5" r="2.5" fill="#D9D9D9"/>
<circle cx="200.5" cy="5.5" r="2.5" fill="#D9D9D9"/>
<circle cx="207.5" cy="5.5" r="2.5" fill="#D9D9D9"/>
<circle cx="214.5" cy="5.5" r="2.5" fill="#D9D9D9"/>
<circle cx="221.5" cy="5.5" r="2.5" fill="#D9D9D9"/>
<circle cx="228.5" cy="5.5" r="2.5" fill="#D9D9D9"/>
<circle cx="235.5" cy="5.5" r="2.5" fill="#D9D9D9"/>
<circle cx="242.5" cy="5.5" r="2.5" fill="#D9D9D9"/>
<circle cx="249.5" cy="5.5" r="2.5" fill="#D9D9D9"/>
<circle cx="256.5" cy="5.5" r="2.5" fill="#D9D9D9"/>
<circle cx="263.5" cy="5.5" r="2.5" fill="#D9D9D9"/>
<circle cx="270.5" cy="5.5" r="2.5" fill="#D9D9D9"/>
<circle cx="277.5" cy="5.5" r="2.5" fill="#D9D9D9"/>
<circle cx="284.5" cy="5.5" r="2.5" fill="#D9D9D9"/>
<circle cx="291.5" cy="5.5" r="2.5" fill="#D9D9D9"/>
</svg>
