<svg width="172" height="70" viewBox="0 0 172 70" fill="none" xmlns="http://www.w3.org/2000/svg">
<line x1="171" y1="54.5" x2="70" y2="54.5" stroke="#029D66" stroke-width="3"/>
<circle cx="35" cy="35" r="35" fill="#029D66"/>
<path d="M31.496 47.576C30.984 47.576 30.584 47.528 30.296 47.432C29.4 47.208 28.776 46.712 28.424 45.944C28.104 45.144 27.944 44.264 27.944 43.304C27.944 42.408 28.024 41.528 28.184 40.664C28.376 39.8 28.536 39.128 28.664 38.648C27.448 41.368 25.944 43.48 24.152 44.984C22.392 46.488 20.52 47.24 18.536 47.24C16.68 47.24 15.32 46.76 14.456 45.8C13.592 44.808 13.16 43.496 13.16 41.864C13.16 40.584 13.368 39.256 13.784 37.88C14.264 36.152 14.92 34.36 15.752 32.504C16.584 30.648 17.592 28.856 18.776 27.128C19.96 25.4 21.32 23.832 22.856 22.424C24.424 21.016 26.168 19.912 28.088 19.112C30.008 18.28 32.136 17.864 34.472 17.864C35.88 17.864 36.984 18.088 37.784 18.536C38.616 18.984 39.192 19.624 39.512 20.456C39.64 20.744 39.704 21.064 39.704 21.416C39.704 21.896 39.576 22.264 39.32 22.52C39.096 22.744 38.872 22.856 38.648 22.856C38.488 22.856 38.376 22.76 38.312 22.568C38.248 22.12 37.992 21.768 37.544 21.512C37.128 21.256 36.632 21.08 36.056 20.984C35.48 20.856 34.936 20.792 34.424 20.792C33.08 20.792 31.752 21.256 30.44 22.184C29.16 23.08 27.96 24.216 26.84 25.592C25.72 26.936 24.712 28.328 23.816 29.768C22.952 31.208 22.248 32.456 21.704 33.512C21 34.984 20.408 36.536 19.928 38.168C19.448 39.768 19.208 41.16 19.208 42.344C19.208 43.144 19.336 43.784 19.592 44.264C19.88 44.712 20.328 44.936 20.936 44.936C21.96 44.904 22.952 44.328 23.912 43.208C24.904 42.088 25.896 40.6 26.888 38.744C27.912 36.888 28.952 34.824 30.008 32.552C31.064 30.28 32.152 27.976 33.272 25.64C33.656 25.704 34.168 25.8 34.808 25.928C35.448 26.024 36.088 26.168 36.728 26.36C37.4 26.552 37.944 26.792 38.36 27.08C38.808 27.336 39.032 27.672 39.032 28.088C39.032 28.312 38.968 28.536 38.84 28.76C37.56 30.456 36.472 32.328 35.576 34.376C34.712 36.392 34.056 38.36 33.608 40.28C33.16 42.168 32.936 43.8 32.936 45.176C32.936 45.656 33.032 46.008 33.224 46.232C33.448 46.424 33.608 46.552 33.704 46.616C33.704 46.968 33.464 47.208 32.984 47.336C32.504 47.496 32.008 47.576 31.496 47.576ZM43.1476 47.432C41.1956 47.432 39.7076 47.08 38.6836 46.376C37.6596 45.672 37.1476 44.456 37.1476 42.728C37.1476 41.608 37.3396 40.36 37.7236 38.984C38.1076 37.608 38.5876 36.232 39.1636 34.856C39.7396 33.448 40.3476 32.12 40.9876 30.872C41.6276 29.624 42.2196 28.552 42.7636 27.656C43.3076 26.728 43.7076 26.072 43.9636 25.688C44.6036 24.792 45.3076 23.88 46.0756 22.952C46.8756 22.024 47.7556 21.24 48.7156 20.6C49.7076 19.96 50.7796 19.64 51.9316 19.64C52.5396 19.64 53.1636 19.752 53.8036 19.976C54.5396 20.264 54.9076 20.552 54.9076 20.84C54.9076 21.032 54.7476 21.128 54.4276 21.128C54.2996 21.128 54.1076 21.208 53.8516 21.368C53.6276 21.496 53.4196 21.656 53.2276 21.848C52.6516 22.424 51.9636 23.24 51.1636 24.296C50.3956 25.352 49.5796 26.52 48.7156 27.8C47.8836 29.08 47.0836 30.408 46.3156 31.784C45.5796 33.128 44.9556 34.408 44.4436 35.624C45.8516 33.672 47.0996 31.976 48.1876 30.536C49.3076 29.064 50.4596 27.88 51.6436 26.984C51.9956 26.728 52.4436 26.6 52.9876 26.6C53.9156 26.6 54.7476 26.84 55.4836 27.32C55.9316 27.64 56.1556 28.264 56.1556 29.192C56.1556 29.992 56.0116 30.952 55.7236 32.072C55.4356 33.192 55.0516 34.36 54.5716 35.576C54.1236 36.76 53.6276 37.912 53.0836 39.032L52.2196 40.76C52.1236 41.048 52.0756 41.352 52.0756 41.672C52.0756 42.088 52.1716 42.456 52.3636 42.776C52.5556 43.096 52.8276 43.256 53.1796 43.256C53.6596 43.256 54.2036 42.84 54.8116 42.008C55.2596 41.464 55.6756 40.84 56.0596 40.136C56.4756 39.4 56.8436 38.712 57.1636 38.072C57.4836 37.432 57.7236 36.968 57.8836 36.68C57.9796 36.456 58.1556 36.344 58.4116 36.344C58.6356 36.344 58.8276 36.424 58.9876 36.584C59.1476 36.744 59.1636 36.952 59.0356 37.208C58.7476 37.752 58.3796 38.44 57.9316 39.272C57.5156 40.104 57.0356 40.936 56.4916 41.768C55.9796 42.568 55.4196 43.224 54.8116 43.736C54.2356 44.216 53.6756 44.456 53.1316 44.456C52.6516 44.456 52.2196 44.312 51.8356 44.024C51.4836 43.704 51.2276 43.32 51.0676 42.872C50.2356 44.184 49.2116 45.272 47.9956 46.136C46.7796 47 45.1636 47.432 43.1476 47.432ZM42.3316 45.464C42.7796 45.464 43.3396 45.064 44.0116 44.264C44.6836 43.432 45.3716 42.392 46.0756 41.144C46.7796 39.864 47.4356 38.52 48.0436 37.112C48.6516 35.704 49.1156 34.376 49.4356 33.128C49.7876 31.88 49.9316 30.904 49.8676 30.2C49.4516 30.648 48.9716 31.208 48.4276 31.88C47.9156 32.52 47.3876 33.224 46.8436 33.992C46.7796 34.088 46.5556 34.44 46.1716 35.048C45.8196 35.624 45.3876 36.36 44.8756 37.256C44.3636 38.12 43.8676 39.032 43.3876 39.992C42.9076 40.952 42.5076 41.848 42.1876 42.68C41.8676 43.512 41.7076 44.184 41.7076 44.696C41.7076 45.208 41.9156 45.464 42.3316 45.464ZM69.2761 47.288C67.8681 47.288 66.8601 46.792 66.2521 45.8C65.6441 44.808 65.3561 43.656 65.3881 42.344C64.3961 44.2 63.3721 45.464 62.3161 46.136C61.2921 46.776 60.2521 47.096 59.1961 47.096C57.9161 47.096 57.0361 46.76 56.5561 46.088C56.0761 45.416 55.8361 44.616 55.8361 43.688C55.8361 42.952 55.9161 42.216 56.0761 41.48C56.2681 40.712 56.4761 40.008 56.7001 39.368C57.1161 38.152 57.5641 36.92 58.0441 35.672C58.5561 34.392 59.0521 33.24 59.5321 32.216C60.0121 31.192 60.3801 30.44 60.6361 29.96C61.2761 28.808 61.9961 28.024 62.7961 27.608C63.5961 27.16 64.4121 26.936 65.2441 26.936C65.5001 26.936 65.7561 26.952 66.0121 26.984C66.3001 27.016 66.5561 27.064 66.7801 27.128C67.1961 27.224 67.5161 27.32 67.7401 27.416C67.9641 27.48 68.0761 27.608 68.0761 27.8C68.0761 27.896 68.0281 28.04 67.9321 28.232C67.4841 29 66.9241 29.992 66.2521 31.208C65.6121 32.392 64.9561 33.672 64.2841 35.048C63.6121 36.424 63.0041 37.784 62.4601 39.128C61.9481 40.44 61.5801 41.624 61.3561 42.68C61.3241 42.84 61.2921 42.984 61.2601 43.112C61.2601 43.24 61.2601 43.368 61.2601 43.496C61.2601 44.04 61.4681 44.312 61.8841 44.312C62.3001 44.312 62.7481 43.992 63.2281 43.352C63.7081 42.712 64.1721 41.944 64.6201 41.048C65.1001 40.152 65.5001 39.336 65.8201 38.6C66.1721 37.832 66.3961 37.352 66.4921 37.16C67.0361 36.04 67.5161 34.968 67.9321 33.944C68.3801 32.888 68.8601 31.864 69.3721 30.872C70.0761 29.464 70.7961 28.424 71.5321 27.752C72.2681 27.08 73.0361 26.68 73.8361 26.552C74.0921 26.488 74.3321 26.456 74.5561 26.456C74.8121 26.456 75.0521 26.456 75.2761 26.456C75.8201 26.456 76.3001 26.472 76.7161 26.504C77.1641 26.536 77.4841 26.568 77.6761 26.6C78.2201 26.632 78.4921 26.792 78.4921 27.08C78.4921 27.432 78.2521 27.64 77.7721 27.704C77.4521 27.736 77.0201 28.152 76.4761 28.952C75.9641 29.72 75.4201 30.632 74.8441 31.688C73.9481 33.352 73.0841 35.144 72.2521 37.064C71.4201 38.952 70.8281 40.856 70.4761 42.776C70.4441 43 70.4121 43.208 70.3801 43.4C70.3801 43.56 70.3801 43.72 70.3801 43.88C70.3801 44.68 70.5881 45.08 71.0041 45.08C71.5161 45.08 72.0441 44.808 72.5881 44.264C73.1321 43.72 73.6601 43.064 74.1721 42.296C74.6201 41.624 75.0681 40.872 75.5161 40.04C75.9641 39.208 76.3641 38.44 76.7161 37.736C77.0681 37 77.3241 36.488 77.4841 36.2C77.5801 36.008 77.7081 35.912 77.8681 35.912C78.0601 35.912 78.2361 36.056 78.3961 36.344C78.5561 36.6 78.5721 36.856 78.4441 37.112C77.8361 38.296 77.1801 39.56 76.4761 40.904C75.7721 42.248 75.0041 43.464 74.1721 44.552C72.7641 46.376 71.1321 47.288 69.2761 47.288ZM81.8195 47.432C79.8675 47.432 78.3795 47.08 77.3555 46.376C76.3315 45.672 75.8195 44.456 75.8195 42.728C75.8195 41.608 76.0115 40.36 76.3955 38.984C76.7795 37.608 77.2595 36.232 77.8355 34.856C78.4115 33.448 79.0195 32.12 79.6595 30.872C80.2995 29.624 80.8915 28.552 81.4355 27.656C81.9795 26.728 82.3795 26.072 82.6355 25.688C83.2755 24.792 83.9795 23.88 84.7475 22.952C85.5475 22.024 86.4275 21.24 87.3875 20.6C88.3795 19.96 89.4515 19.64 90.6035 19.64C91.2115 19.64 91.8355 19.752 92.4755 19.976C93.2115 20.264 93.5795 20.552 93.5795 20.84C93.5795 21.032 93.4195 21.128 93.0995 21.128C92.9715 21.128 92.7795 21.208 92.5235 21.368C92.2995 21.496 92.0915 21.656 91.8995 21.848C91.3235 22.424 90.6355 23.24 89.8355 24.296C89.0675 25.352 88.2515 26.52 87.3875 27.8C86.5555 29.08 85.7555 30.408 84.9875 31.784C84.2515 33.128 83.6275 34.408 83.1155 35.624C84.5235 33.672 85.7715 31.976 86.8595 30.536C87.9795 29.064 89.1315 27.88 90.3155 26.984C90.6675 26.728 91.1155 26.6 91.6595 26.6C92.5875 26.6 93.4195 26.84 94.1555 27.32C94.6035 27.64 94.8275 28.264 94.8275 29.192C94.8275 29.992 94.6835 30.952 94.3955 32.072C94.1075 33.192 93.7235 34.36 93.2435 35.576C92.7955 36.76 92.2995 37.912 91.7555 39.032L90.8915 40.76C90.7955 41.048 90.7475 41.352 90.7475 41.672C90.7475 42.088 90.8435 42.456 91.0355 42.776C91.2275 43.096 91.4995 43.256 91.8515 43.256C92.3315 43.256 92.8755 42.84 93.4835 42.008C93.9315 41.464 94.3475 40.84 94.7315 40.136C95.1475 39.4 95.5155 38.712 95.8355 38.072C96.1555 37.432 96.3955 36.968 96.5555 36.68C96.6515 36.456 96.8275 36.344 97.0835 36.344C97.3075 36.344 97.4995 36.424 97.6595 36.584C97.8195 36.744 97.8355 36.952 97.7075 37.208C97.4195 37.752 97.0515 38.44 96.6035 39.272C96.1875 40.104 95.7075 40.936 95.1635 41.768C94.6515 42.568 94.0915 43.224 93.4835 43.736C92.9075 44.216 92.3475 44.456 91.8035 44.456C91.3235 44.456 90.8915 44.312 90.5075 44.024C90.1555 43.704 89.8995 43.32 89.7395 42.872C88.9075 44.184 87.8835 45.272 86.6675 46.136C85.4515 47 83.8355 47.432 81.8195 47.432ZM81.0035 45.464C81.4515 45.464 82.0115 45.064 82.6835 44.264C83.3555 43.432 84.0435 42.392 84.7475 41.144C85.4515 39.864 86.1075 38.52 86.7155 37.112C87.3235 35.704 87.7875 34.376 88.1075 33.128C88.4595 31.88 88.6035 30.904 88.5395 30.2C88.1235 30.648 87.6435 31.208 87.0995 31.88C86.5875 32.52 86.0595 33.224 85.5155 33.992C85.4515 34.088 85.2275 34.44 84.8435 35.048C84.4915 35.624 84.0595 36.36 83.5475 37.256C83.0355 38.12 82.5395 39.032 82.0595 39.992C81.5795 40.952 81.1795 41.848 80.8595 42.68C80.5395 43.512 80.3795 44.184 80.3795 44.696C80.3795 45.208 80.5875 45.464 81.0035 45.464ZM98.924 47.288C97.356 47.288 96.252 46.936 95.612 46.232C95.004 45.496 94.7 44.584 94.7 43.496C94.7 42.344 94.908 41.112 95.324 39.8C95.772 38.456 96.268 37.224 96.812 36.104C97.388 34.952 97.836 34.072 98.156 33.464C99.468 31.032 100.972 29.256 102.668 28.136C104.396 27.016 106.3 26.456 108.38 26.456C109.116 26.456 109.98 26.488 110.972 26.552C111.964 26.616 112.972 26.648 113.996 26.648C114.508 26.648 115.004 26.632 115.484 26.6C115.964 26.568 116.428 26.552 116.876 26.552H117.068C117.612 26.552 117.884 26.648 117.884 26.84C117.884 26.968 117.692 27.112 117.308 27.272C116.892 27.432 116.396 27.976 115.82 28.904C115.244 29.8 114.652 30.888 114.044 32.168C113.436 33.448 112.86 34.744 112.316 36.056C112.028 36.792 111.644 37.784 111.164 39.032C110.684 40.248 110.332 41.496 110.108 42.776C110.076 43 110.044 43.208 110.012 43.4C110.012 43.56 110.012 43.72 110.012 43.88C110.012 44.68 110.22 45.08 110.636 45.08C111.148 45.08 111.676 44.808 112.22 44.264C112.764 43.72 113.292 43.064 113.804 42.296C114.252 41.624 114.7 40.872 115.148 40.04C115.596 39.208 115.996 38.44 116.348 37.736C116.7 37 116.956 36.488 117.116 36.2C117.212 36.008 117.34 35.912 117.5 35.912C117.692 35.912 117.868 36.056 118.028 36.344C118.188 36.6 118.204 36.856 118.076 37.112C117.468 38.296 116.812 39.56 116.108 40.904C115.404 42.248 114.636 43.464 113.804 44.552C112.396 46.376 110.764 47.288 108.908 47.288C107.5 47.288 106.46 46.856 105.788 45.992C105.148 45.128 104.828 44.088 104.828 42.872C104.828 42.328 104.876 41.8 104.972 41.288C104.62 41.864 104.188 42.616 103.676 43.544C103.164 44.44 102.572 45.256 101.9 45.992C101.26 46.728 100.54 47.144 99.74 47.24C99.612 47.24 99.484 47.24 99.356 47.24C99.228 47.272 99.084 47.288 98.924 47.288ZM100.7 44.84C101.02 44.84 101.436 44.552 101.948 43.976C102.492 43.4 103.036 42.68 103.58 41.816C104.156 40.92 104.652 40.024 105.068 39.128C105.164 38.872 105.388 38.328 105.74 37.496C106.124 36.632 106.54 35.64 106.988 34.52C107.468 33.368 107.948 32.216 108.428 31.064C108.908 29.912 109.324 28.904 109.676 28.04C109.708 27.944 109.724 27.832 109.724 27.704C109.724 27.512 109.628 27.416 109.436 27.416C109.244 27.416 109.02 27.496 108.764 27.656C108.508 27.784 108.268 27.928 108.044 28.088C107.628 28.408 107.084 29.08 106.412 30.104C105.772 31.096 105.084 32.264 104.348 33.608C103.644 34.952 102.972 36.328 102.332 37.736C101.692 39.112 101.164 40.376 100.748 41.528C100.364 42.648 100.172 43.496 100.172 44.072C100.172 44.584 100.348 44.84 100.7 44.84ZM118.837 47.288C118.357 47.288 117.909 47.24 117.493 47.144C117.109 47.08 116.645 46.936 116.101 46.712C115.397 46.424 114.885 45.928 114.565 45.224C114.277 44.488 114.133 43.624 114.133 42.632C114.133 41.416 114.325 40.072 114.709 38.6C115.125 37.128 115.637 35.704 116.245 34.328C116.821 33.048 117.301 31.944 117.685 31.016C118.101 30.056 118.517 29.224 118.933 28.52C119.381 27.816 119.925 27.192 120.565 26.648C121.205 26.072 122.021 25.528 123.013 25.016C123.781 24.664 124.613 24.488 125.509 24.488C126.405 24.488 127.237 24.616 128.005 24.872C128.325 24.968 128.485 25.096 128.485 25.256C128.485 25.384 128.373 25.512 128.149 25.64C127.861 25.832 127.477 26.168 126.997 26.648C126.517 27.096 126.005 27.704 125.461 28.472C125.173 28.888 124.789 29.48 124.309 30.248C123.829 31.016 123.461 31.64 123.205 32.12C122.949 32.568 122.741 32.952 122.581 33.272C122.421 33.56 122.309 33.784 122.245 33.944L121.429 35.576C121.717 35.096 122.133 34.488 122.677 33.752C123.253 33.016 123.877 32.264 124.549 31.496C125.253 30.696 125.941 29.976 126.613 29.336C127.285 28.696 128.005 28.072 128.773 27.464C129.573 26.824 130.373 26.312 131.173 25.928C131.973 25.512 132.709 25.304 133.381 25.304C134.021 25.304 134.597 25.48 135.109 25.832C135.621 26.152 135.877 26.488 135.877 26.84C135.877 27.224 135.573 27.496 134.965 27.656C133.653 28.008 132.245 28.568 130.741 29.336C129.237 30.072 127.893 30.856 126.709 31.688C126.709 32.264 126.757 33.048 126.853 34.04C126.949 35.032 127.061 36.04 127.189 37.064C127.349 38.088 127.509 38.952 127.669 39.656C127.797 40.2 127.957 40.84 128.149 41.576C128.373 42.28 128.661 42.904 129.013 43.448C129.397 43.96 129.845 44.216 130.357 44.216C130.549 44.216 130.805 44.136 131.125 43.976C131.253 43.848 131.317 43.88 131.317 44.072C131.317 44.296 131.237 44.456 131.077 44.552C130.085 45.384 129.125 46.04 128.197 46.52C127.301 47 126.485 47.24 125.749 47.24C124.821 47.24 124.133 46.824 123.685 45.992C123.301 45.352 123.029 44.648 122.869 43.88C122.709 43.08 122.597 42.296 122.533 41.528C122.533 41.336 122.517 41.128 122.485 40.904C122.485 40.648 122.485 40.392 122.485 40.136C122.485 39.24 122.517 38.344 122.581 37.448C122.645 36.52 122.709 35.928 122.773 35.672C122.101 36.088 121.477 36.824 120.901 37.88C120.325 38.904 119.861 40.024 119.509 41.24C119.189 42.456 119.029 43.56 119.029 44.552C119.029 45 119.061 45.416 119.125 45.8C119.221 46.152 119.365 46.424 119.557 46.616C119.749 46.84 119.749 47.016 119.557 47.144C119.429 47.24 119.189 47.288 118.837 47.288ZM137.502 47.288C135.934 47.288 134.83 46.936 134.19 46.232C133.582 45.496 133.278 44.584 133.278 43.496C133.278 42.344 133.486 41.112 133.902 39.8C134.35 38.456 134.846 37.224 135.39 36.104C135.966 34.952 136.414 34.072 136.734 33.464C138.046 31.032 139.55 29.256 141.246 28.136C142.974 27.016 144.878 26.456 146.958 26.456C147.694 26.456 148.558 26.488 149.55 26.552C150.542 26.616 151.55 26.648 152.574 26.648C153.086 26.648 153.582 26.632 154.062 26.6C154.542 26.568 155.006 26.552 155.454 26.552H155.646C156.19 26.552 156.462 26.648 156.462 26.84C156.462 26.968 156.27 27.112 155.886 27.272C155.47 27.432 154.974 27.976 154.398 28.904C153.822 29.8 153.23 30.888 152.622 32.168C152.014 33.448 151.438 34.744 150.894 36.056C150.606 36.792 150.222 37.784 149.742 39.032C149.262 40.248 148.91 41.496 148.686 42.776C148.654 43 148.622 43.208 148.59 43.4C148.59 43.56 148.59 43.72 148.59 43.88C148.59 44.68 148.798 45.08 149.214 45.08C149.726 45.08 150.254 44.808 150.798 44.264C151.342 43.72 151.87 43.064 152.382 42.296C152.83 41.624 153.278 40.872 153.726 40.04C154.174 39.208 154.574 38.44 154.926 37.736C155.278 37 155.534 36.488 155.694 36.2C155.79 36.008 155.918 35.912 156.078 35.912C156.27 35.912 156.446 36.056 156.606 36.344C156.766 36.6 156.782 36.856 156.654 37.112C156.046 38.296 155.39 39.56 154.686 40.904C153.982 42.248 153.214 43.464 152.382 44.552C150.974 46.376 149.342 47.288 147.486 47.288C146.078 47.288 145.038 46.856 144.366 45.992C143.726 45.128 143.406 44.088 143.406 42.872C143.406 42.328 143.454 41.8 143.55 41.288C143.198 41.864 142.766 42.616 142.254 43.544C141.742 44.44 141.15 45.256 140.478 45.992C139.838 46.728 139.118 47.144 138.318 47.24C138.19 47.24 138.062 47.24 137.934 47.24C137.806 47.272 137.662 47.288 137.502 47.288ZM139.278 44.84C139.598 44.84 140.014 44.552 140.526 43.976C141.07 43.4 141.614 42.68 142.158 41.816C142.734 40.92 143.23 40.024 143.646 39.128C143.742 38.872 143.966 38.328 144.318 37.496C144.702 36.632 145.118 35.64 145.566 34.52C146.046 33.368 146.526 32.216 147.006 31.064C147.486 29.912 147.902 28.904 148.254 28.04C148.286 27.944 148.302 27.832 148.302 27.704C148.302 27.512 148.206 27.416 148.014 27.416C147.822 27.416 147.598 27.496 147.342 27.656C147.086 27.784 146.846 27.928 146.622 28.088C146.206 28.408 145.662 29.08 144.99 30.104C144.35 31.096 143.662 32.264 142.926 33.608C142.222 34.952 141.55 36.328 140.91 37.736C140.27 39.112 139.742 40.376 139.326 41.528C138.942 42.648 138.75 43.496 138.75 44.072C138.75 44.584 138.926 44.84 139.278 44.84ZM162.599 47.384C160.999 47.384 159.863 46.936 159.191 46.04C158.551 45.112 158.231 44.056 158.231 42.872C158.231 41.816 158.455 40.648 158.903 39.368C159.351 38.056 159.895 36.744 160.535 35.432C161.207 34.088 161.895 32.808 162.599 31.592C163.303 30.376 163.911 29.288 164.423 28.328C164.103 28.392 163.767 28.456 163.415 28.52C163.095 28.552 162.775 28.568 162.455 28.568C161.719 28.568 161.079 28.456 160.535 28.232C160.503 28.36 160.455 28.488 160.391 28.616C160.327 28.744 160.279 28.84 160.247 28.904C159.543 30.76 158.791 32.568 157.991 34.328C157.191 36.088 156.471 37.528 155.831 38.648C155.415 39.384 155.047 39.752 154.727 39.752C154.471 39.752 154.343 39.56 154.343 39.176C154.343 38.92 154.407 38.68 154.535 38.456C155.175 37.24 155.911 35.704 156.743 33.848C157.607 31.992 158.391 30.104 159.095 28.184C159.127 28.12 159.159 28.008 159.191 27.848C159.255 27.656 159.303 27.496 159.335 27.368C158.919 26.856 158.711 26.184 158.711 25.352C158.711 24.808 158.855 24.28 159.143 23.768C159.431 23.224 159.879 22.952 160.487 22.952C160.839 22.952 161.159 23.08 161.447 23.336C161.767 23.592 161.927 23.992 161.927 24.536C161.927 25.176 161.703 25.88 161.255 26.648C161.319 26.872 161.527 27.048 161.879 27.176C162.231 27.272 162.615 27.32 163.031 27.32C163.479 27.32 163.911 27.256 164.327 27.128C164.775 27 165.079 26.808 165.239 26.552C165.527 26.168 166.007 25.976 166.679 25.976C167.255 25.976 167.895 26.136 168.599 26.456C168.983 26.648 169.303 26.936 169.559 27.32C169.815 27.672 169.943 28.12 169.943 28.664C169.943 29.624 169.527 30.84 168.695 32.312C167.799 33.976 166.871 35.768 165.911 37.688C164.983 39.608 164.295 41.336 163.847 42.872C163.719 43.288 163.655 43.688 163.655 44.072C163.655 44.744 163.863 45.08 164.279 45.08C164.727 45.08 165.223 44.792 165.767 44.216C166.343 43.64 166.903 42.952 167.447 42.152C168.151 41.128 168.791 40.04 169.367 38.888C169.975 37.736 170.391 36.936 170.615 36.488C170.711 36.296 170.855 36.2 171.047 36.2C171.239 36.2 171.415 36.312 171.575 36.536C171.767 36.728 171.799 36.952 171.671 37.208C171.255 38.072 170.679 39.192 169.943 40.568C169.207 41.912 168.375 43.176 167.447 44.36C166.775 45.224 166.039 45.944 165.239 46.52C164.439 47.096 163.559 47.384 162.599 47.384Z" fill="white"/>
</svg>
